<svg width="127" height="81" viewBox="0 0 127 81" fill="none" xmlns="http://www.w3.org/2000/svg">
<path d="M63.2319 0C37.1488 0 15.808 15.5695 15.808 34.5988V46.1317H7.90399C5.80772 46.1317 3.79731 46.7393 2.31503 47.8207C0.83274 48.9021 0 50.3688 0 51.8982L0 74.9641C0 76.4934 0.83274 77.9602 2.31503 79.0416C3.79731 80.123 5.80772 80.7305 7.90399 80.7305H23.712C25.8083 80.7305 27.8187 80.123 29.3009 79.0416C30.7832 77.9602 31.616 76.4934 31.616 74.9641V34.5988C31.616 21.7972 45.6851 11.5329 63.2319 11.5329C80.7788 11.5329 94.8479 21.7972 94.8479 34.5988V74.9641C94.8479 76.4934 95.6807 77.9602 97.1629 79.0416C98.6452 80.123 100.656 80.7305 102.752 80.7305H118.56C120.656 80.7305 122.667 80.123 124.149 79.0416C125.631 77.9602 126.464 76.4934 126.464 74.9641V51.8982C126.464 50.3688 125.631 48.9021 124.149 47.8207C122.667 46.7393 120.656 46.1317 118.56 46.1317H110.656V34.5988C110.656 15.5695 89.3151 0 63.2319 0Z" fill="black"/>
</svg>
